M48
;Layer_Color=9474304
;FILE_FORMAT=2:5
INCH,TZ
;TYPE=PLATED
T1F00S00C0.01575
T2F00S00C0.03543
T3F00S00C0.11417
%
T01
X6693Y31102
Y40551
X11654Y35827
X18504Y87008
X26772Y106299
X44882Y127165
X59449Y84252
X60236Y79528
X65354Y78740
Y83268
X66142Y53937
X69784Y50787
X68898Y45669
X78445Y45079
X82226Y44110
X49606Y39370
Y35039
Y29921
X38583Y64567
X116043Y65059
Y68996
X120866Y64567
X118898Y60236
X126772Y55118
X133465Y57087
X133465Y61811
X127559Y86221
Y94095
X125984Y109449
X130315Y113779
X134252Y118701
X149213Y118504
Y113779
Y109449
X164567Y96063
X181102Y95669
X185827Y95669
X186909Y85728
X179528
X184449Y71457
X177559Y66929
X179134Y61811
X172835Y68898
X160236Y83071
X156299Y85827
X143701Y84646
X110236Y74902
X105217Y103445
Y110827
X100394Y98819
X161417Y130709
X160236Y49606
X155905Y45669
X167323Y46850
X163386Y39370
X175197Y29921
X179134
X176772Y23622
X205512Y13386
X233858Y12205
X261811Y11811
X262598Y23622
X262268Y32740
X259449Y29921
X251969Y50787
X244488Y43701
X240158
X237008Y51181
X233858Y64961
X232283Y76772
X236221Y101181
X240945Y105512
X244094
X250787Y106693
X252362Y97638
X251575Y90945
X257087Y87008
X262205Y92520
X268898Y99213
X261417Y115354
X230315Y106693
X218504Y95669
X214173
X209449
X199606
X204331Y100394
X195276Y109449
X200000Y130315
X232283
X214173Y89945
X198425Y84646
X199606Y77165
X202756Y59842
X190157Y64173
X213779Y51575
X218504Y51181
X222047Y53937
X219685Y40157
X296457Y31102
X299606Y50394
X300394Y91339
X298425Y112205
X107874Y135433
T02
X31394Y9968
X41394
X51394
X61394
X71394
X81394
X91394
X101394
X111394
X121394
X131394
X141394
X151394
X161394
X171394
X181394
X268917Y59488
X278917
Y69488
X268917
Y79488
X278917
T03
X9740Y9968
X305016
Y132016
X9740
M30
