G04 Layer_Color=8388736*
%FSLAX25Y25*%
%MOIN*%
G70*
G01*
G75*
%ADD34R,0.06693X0.06299*%
%ADD35R,0.05512X0.04331*%
%ADD36R,0.04331X0.05512*%
%ADD37R,0.03150X0.05906*%
%ADD38R,0.02559X0.07087*%
%ADD39R,0.05906X0.03150*%
%ADD40C,0.14567*%
%ADD41R,0.06693X0.06693*%
%ADD42C,0.06693*%
%ADD43R,0.06693X0.06693*%
D34*
X242520Y29921D02*
D03*
Y37795D02*
D03*
Y91732D02*
D03*
Y99606D02*
D03*
D35*
X276591Y120472D02*
D03*
X269110D02*
D03*
X269079Y107480D02*
D03*
X276559D02*
D03*
X270260Y27953D02*
D03*
X277740D02*
D03*
X206906Y48819D02*
D03*
X199425D02*
D03*
X180134Y42126D02*
D03*
X172653D02*
D03*
X99130Y103445D02*
D03*
X91650D02*
D03*
X91618Y110827D02*
D03*
X99098D02*
D03*
X77476Y58661D02*
D03*
X69996D02*
D03*
X178362Y90650D02*
D03*
X170882D02*
D03*
X185614D02*
D03*
X193095D02*
D03*
X32622Y21492D02*
D03*
X40102D02*
D03*
X11622Y30992D02*
D03*
X19102D02*
D03*
X19134Y40492D02*
D03*
X11654D02*
D03*
D36*
X218504Y82464D02*
D03*
Y89945D02*
D03*
X209842Y89977D02*
D03*
Y82496D02*
D03*
X152362Y63205D02*
D03*
Y55724D02*
D03*
X160236Y55693D02*
D03*
Y63173D02*
D03*
X152362Y70653D02*
D03*
Y78134D02*
D03*
X160236Y78165D02*
D03*
Y70685D02*
D03*
X72244Y90961D02*
D03*
Y83480D02*
D03*
X86024Y51591D02*
D03*
Y44110D02*
D03*
D37*
X210433Y60433D02*
D03*
X214173D02*
D03*
X217913D02*
D03*
Y71063D02*
D03*
X214173D02*
D03*
X210433D02*
D03*
D38*
X190945Y78642D02*
D03*
X188386D02*
D03*
X185827D02*
D03*
X183268D02*
D03*
X180709D02*
D03*
X178150D02*
D03*
X175591D02*
D03*
X173032D02*
D03*
X190945Y55413D02*
D03*
X188386D02*
D03*
X185827D02*
D03*
X183268D02*
D03*
X180709D02*
D03*
X178150D02*
D03*
X175591D02*
D03*
X173032D02*
D03*
X111909Y90945D02*
D03*
X109350D02*
D03*
X106791D02*
D03*
X104232D02*
D03*
X101673D02*
D03*
X99114D02*
D03*
X96555D02*
D03*
X93996D02*
D03*
X91437D02*
D03*
X88878D02*
D03*
X86319D02*
D03*
X83760D02*
D03*
X111909Y67716D02*
D03*
X109350D02*
D03*
X106791D02*
D03*
X104232D02*
D03*
X101673D02*
D03*
X99114D02*
D03*
X96555D02*
D03*
X93996D02*
D03*
X91437D02*
D03*
X88878D02*
D03*
X86319D02*
D03*
X83760D02*
D03*
D39*
X41193Y31252D02*
D03*
Y34992D02*
D03*
Y38732D02*
D03*
X30563D02*
D03*
Y34992D02*
D03*
Y31252D02*
D03*
D40*
X9740Y9968D02*
D03*
X305016D02*
D03*
X9740Y132016D02*
D03*
X305016D02*
D03*
D41*
X31394Y9968D02*
D03*
D42*
X41394D02*
D03*
X51394D02*
D03*
X61394D02*
D03*
X71394D02*
D03*
X81394D02*
D03*
X91394D02*
D03*
X101394D02*
D03*
X111394D02*
D03*
X121394D02*
D03*
X131394D02*
D03*
X141394D02*
D03*
X151394D02*
D03*
X161394D02*
D03*
X171394D02*
D03*
X181394D02*
D03*
X268917Y59488D02*
D03*
X278917Y69488D02*
D03*
X268917D02*
D03*
X278917Y79488D02*
D03*
X268917D02*
D03*
D43*
X278917Y59488D02*
D03*
M02*
