G04 Layer_Color=65535*
%FSLAX25Y25*%
%MOIN*%
G70*
G01*
G75*
%ADD20C,0.02362*%
%ADD30C,0.00984*%
%ADD31C,0.00787*%
%ADD32C,0.01181*%
%ADD33C,0.01000*%
D20*
X189272Y70374D02*
G03*
X189272Y70374I-1181J0D01*
G01*
X87402Y75984D02*
G03*
X87402Y75984I-1181J0D01*
G01*
D30*
X207579Y60433D02*
G03*
X207579Y60433I-492J0D01*
G01*
X194488Y78642D02*
G03*
X194488Y78642I-492J0D01*
G01*
X81201Y67716D02*
G03*
X81201Y67716I-492J0D01*
G01*
X41685Y27905D02*
G03*
X41685Y27905I-492J0D01*
G01*
D31*
X239961Y33858D02*
X245079D01*
X239961Y95669D02*
X245079D01*
X272650Y121882D02*
X273043D01*
X272650Y119126D02*
X273043D01*
X272626Y106071D02*
X273020D01*
X272626Y108827D02*
X273020D01*
X273807Y26543D02*
X274201D01*
X273807Y29299D02*
X274201D01*
X219913Y86012D02*
Y86405D01*
X217158Y86012D02*
Y86405D01*
X208433Y86036D02*
Y86429D01*
X211189Y86036D02*
Y86429D01*
X208071Y63780D02*
Y67717D01*
X220276Y63780D02*
Y67717D01*
X208071Y63780D02*
X220276D01*
X208071Y67717D02*
X220276D01*
X150953Y59264D02*
Y59657D01*
X153709Y59264D02*
Y59657D01*
X161646Y59240D02*
Y59634D01*
X158890Y59240D02*
Y59634D01*
X153772Y74201D02*
Y74594D01*
X151016Y74201D02*
Y74594D01*
X158827Y74225D02*
Y74618D01*
X161583Y74225D02*
Y74618D01*
X202965Y50228D02*
X203358D01*
X202965Y47473D02*
X203358D01*
X176193Y43535D02*
X176587D01*
X176193Y40780D02*
X176587D01*
X95189Y104854D02*
X95583D01*
X95189Y102099D02*
X95583D01*
X95165Y109417D02*
X95559D01*
X95165Y112173D02*
X95559D01*
X70835Y87020D02*
Y87413D01*
X73590Y87020D02*
Y87413D01*
X73535Y60071D02*
X73929D01*
X73535Y57315D02*
X73929D01*
X84614Y47649D02*
Y48043D01*
X87370Y47649D02*
Y48043D01*
X171949Y74311D02*
X192028D01*
X171949Y59744D02*
X192028D01*
Y74311D01*
X171949Y59744D02*
Y74311D01*
X113386Y72047D02*
Y86614D01*
X82284Y72047D02*
Y86614D01*
X113386D01*
X82284Y72047D02*
X113386D01*
X174421Y92059D02*
X174815D01*
X174421Y89303D02*
X174815D01*
X189162Y89240D02*
X189555D01*
X189162Y91996D02*
X189555D01*
X36169Y20083D02*
X36563D01*
X36169Y22839D02*
X36563D01*
X33910Y28890D02*
X37847D01*
X33910Y41094D02*
X37847D01*
Y28890D02*
Y41094D01*
X33910Y28890D02*
Y41094D01*
X15169Y29583D02*
X15563D01*
X15169Y32339D02*
X15563D01*
X15193Y41901D02*
X15586D01*
X15193Y39146D02*
X15586D01*
D32*
X257185Y99016D02*
X290650D01*
X257185Y39961D02*
X290650D01*
X257185D02*
Y99016D01*
X290650Y39961D02*
Y61614D01*
Y77362D02*
Y99016D01*
X18036Y82375D02*
X21971D01*
X23939Y84343D01*
X21971Y86310D01*
X18036D01*
X19020Y92214D02*
X18036Y91230D01*
Y89262D01*
X19020Y88278D01*
X22955D01*
X23939Y89262D01*
Y91230D01*
X22955Y92214D01*
X19020Y98118D02*
X18036Y97134D01*
Y95166D01*
X19020Y94182D01*
X22955D01*
X23939Y95166D01*
Y97134D01*
X22955Y98118D01*
X33858Y62204D02*
X31890Y60236D01*
X29923D01*
X27955Y62204D01*
X28939Y65156D02*
X27955Y66140D01*
Y68108D01*
X28939Y69092D01*
X29923D01*
X30907Y68108D01*
Y67124D01*
Y68108D01*
X31890Y69092D01*
X32874D01*
X33858Y68108D01*
Y66140D01*
X32874Y65156D01*
X27955Y71060D02*
X31890D01*
X33858Y73027D01*
X31890Y74995D01*
X27955D01*
X28939Y76963D02*
X27955Y77947D01*
Y79915D01*
X28939Y80899D01*
X29923D01*
X30907Y79915D01*
Y78931D01*
Y79915D01*
X31890Y80899D01*
X32874D01*
X33858Y79915D01*
Y77947D01*
X32874Y76963D01*
X33858Y89754D02*
Y91722D01*
X32874Y92706D01*
X30907D01*
X29923Y91722D01*
Y89754D01*
X30907Y88770D01*
X32874D01*
X33858Y89754D01*
X29923Y94674D02*
X33858D01*
X31890D01*
X30907Y95658D01*
X29923Y96642D01*
Y97626D01*
X27955Y110417D02*
Y106481D01*
X30907D01*
X29923Y108449D01*
Y109433D01*
X30907Y110417D01*
X32874D01*
X33858Y109433D01*
Y107465D01*
X32874Y106481D01*
X27955Y112385D02*
X31890D01*
X33858Y114353D01*
X31890Y116320D01*
X27955D01*
X33858Y118288D02*
X31890Y120256D01*
X29923D01*
X27955Y118288D01*
X107379Y104171D02*
X108363Y105154D01*
X110331D01*
X111315Y104171D01*
Y100235D01*
X110331Y99251D01*
X108363D01*
X107379Y100235D01*
Y104171D01*
X108363Y108109D02*
X110331D01*
X109347D01*
Y114013D01*
X108363Y113029D01*
X185433Y7480D02*
X187401D01*
X186417D01*
Y13384D01*
X185433Y12400D01*
X194289Y13384D02*
X192321Y12400D01*
X190353Y10432D01*
Y8464D01*
X191337Y7480D01*
X193305D01*
X194289Y8464D01*
Y9448D01*
X193305Y10432D01*
X190353D01*
X24409Y7087D02*
X26377D01*
X25393D01*
Y12990D01*
X24409Y12006D01*
X76772Y27163D02*
Y21260D01*
X80707D01*
X86611Y26180D02*
X85627Y27163D01*
X83659D01*
X82675Y26180D01*
Y22244D01*
X83659Y21260D01*
X85627D01*
X86611Y22244D01*
X88579Y27163D02*
Y21260D01*
X91531D01*
X92515Y22244D01*
Y26180D01*
X91531Y27163D01*
X88579D01*
X103338Y21260D02*
X100386Y24212D01*
X103338Y27163D01*
X106290Y24212D02*
X110225D01*
X112193Y21260D02*
X115145Y24212D01*
X112193Y27163D01*
X123017D02*
X124984D01*
X124001D01*
Y21260D01*
X123017D01*
X124984D01*
X131872D02*
X127936D01*
X131872Y25196D01*
Y26180D01*
X130888Y27163D01*
X128920D01*
X127936Y26180D01*
X137776D02*
X136792Y27163D01*
X134824D01*
X133840Y26180D01*
Y22244D01*
X134824Y21260D01*
X136792D01*
X137776Y22244D01*
X296062Y61613D02*
X295078Y62596D01*
X293110D01*
X292126Y61613D01*
Y57677D01*
X293110Y56693D01*
X295078D01*
X296062Y57677D01*
Y59645D01*
X294094D01*
X298030Y56693D02*
Y62596D01*
X301965Y56693D01*
Y62596D01*
X303933D02*
Y56693D01*
X306885D01*
X307869Y57677D01*
Y61613D01*
X306885Y62596D01*
X303933D01*
X296062Y71455D02*
X295078Y72439D01*
X293110D01*
X292126Y71455D01*
Y70471D01*
X293110Y69487D01*
X295078D01*
X296062Y68503D01*
Y67519D01*
X295078Y66535D01*
X293110D01*
X292126Y67519D01*
X298030Y72439D02*
Y66535D01*
X300981D01*
X301965Y67519D01*
Y71455D01*
X300981Y72439D01*
X298030D01*
X303933Y66535D02*
Y70471D01*
X305901Y72439D01*
X307869Y70471D01*
Y66535D01*
Y69487D01*
X303933D01*
X292913Y82675D02*
X294881D01*
X293897D01*
Y76772D01*
X292913D01*
X294881D01*
X297833D02*
Y82675D01*
X301769Y76772D01*
Y82675D01*
X303737Y81691D02*
X307672Y77756D01*
X303737D02*
X307672Y81691D01*
X303737Y79724D02*
X307672D01*
X305704Y77756D02*
Y81691D01*
X238976Y62990D02*
Y59054D01*
X240944Y57087D01*
X242912Y59054D01*
Y62990D01*
X248816Y62006D02*
X247832Y62990D01*
X245864D01*
X244880Y62006D01*
Y58071D01*
X245864Y57087D01*
X247832D01*
X248816Y58071D01*
X254719Y62006D02*
X253735Y62990D01*
X251767D01*
X250784Y62006D01*
Y58071D01*
X251767Y57087D01*
X253735D01*
X254719Y58071D01*
X242912Y71849D02*
X241928Y72833D01*
X239960D01*
X238976Y71849D01*
Y70865D01*
X239960Y69881D01*
X241928D01*
X242912Y68897D01*
Y67913D01*
X241928Y66929D01*
X239960D01*
X238976Y67913D01*
X248816Y71849D02*
X247832Y72833D01*
X245864D01*
X244880Y71849D01*
Y67913D01*
X245864Y66929D01*
X247832D01*
X248816Y67913D01*
X250784Y72833D02*
Y66929D01*
X254719D01*
X238583Y79724D02*
X242518D01*
X240550Y81691D02*
Y77756D01*
X248422Y82675D02*
X244486D01*
Y79724D01*
X246454Y80707D01*
X247438D01*
X248422Y79724D01*
Y77756D01*
X247438Y76772D01*
X245470D01*
X244486Y77756D01*
X250390Y82675D02*
Y78740D01*
X252358Y76772D01*
X254326Y78740D01*
Y82675D01*
X257088Y106693D02*
Y108661D01*
Y107677D01*
X262992D01*
Y106693D01*
Y108661D01*
Y115548D02*
Y111613D01*
X259056Y115548D01*
X258072D01*
X257088Y114564D01*
Y112596D01*
X258072Y111613D01*
Y121452D02*
X257088Y120468D01*
Y118500D01*
X258072Y117516D01*
X262008D01*
X262992Y118500D01*
Y120468D01*
X262008Y121452D01*
X268110Y124016D02*
Y129919D01*
X271062D01*
X272046Y128935D01*
Y126968D01*
X271062Y125984D01*
X268110D01*
X270078D02*
X272046Y124016D01*
X276966D02*
Y129919D01*
X274014Y126968D01*
X277950D01*
X268110Y110630D02*
Y116534D01*
X271062D01*
X272046Y115550D01*
Y113582D01*
X271062Y112598D01*
X268110D01*
X270078D02*
X272046Y110630D01*
X274014Y115550D02*
X274998Y116534D01*
X276966D01*
X277950Y115550D01*
Y114566D01*
X276966Y113582D01*
X277950Y112598D01*
Y111614D01*
X276966Y110630D01*
X274998D01*
X274014Y111614D01*
Y112598D01*
X274998Y113582D01*
X274014Y114566D01*
Y115550D01*
X274998Y113582D02*
X276966D01*
X268898Y31496D02*
Y37400D01*
X271849D01*
X272833Y36416D01*
Y34448D01*
X271849Y33464D01*
X268898D01*
X270866D02*
X272833Y31496D01*
X274801Y32480D02*
X275785Y31496D01*
X277753D01*
X278737Y32480D01*
Y36416D01*
X277753Y37400D01*
X275785D01*
X274801Y36416D01*
Y35432D01*
X275785Y34448D01*
X278737D01*
X216734Y98424D02*
X215750Y97440D01*
Y95472D01*
X216734Y94488D01*
X220670D01*
X221654Y95472D01*
Y97440D01*
X220670Y98424D01*
X215750Y100392D02*
Y104327D01*
X216734D01*
X220670Y100392D01*
X221654D01*
X212205Y94095D02*
X206301D01*
Y97046D01*
X207285Y98030D01*
X209253D01*
X210237Y97046D01*
Y94095D01*
Y96062D02*
X212205Y98030D01*
Y99998D02*
Y101966D01*
Y100982D01*
X206301D01*
X207285Y99998D01*
X212205Y107870D02*
X206301D01*
X209253Y104918D01*
Y108853D01*
X223230Y61024D02*
X228150D01*
X229134Y62008D01*
Y63975D01*
X228150Y64959D01*
X223230D01*
Y70863D02*
Y66927D01*
X226182D01*
X225198Y68895D01*
Y69879D01*
X226182Y70863D01*
X228150D01*
X229134Y69879D01*
Y67911D01*
X228150Y66927D01*
X68898Y118110D02*
Y124014D01*
X71849D01*
X72833Y123030D01*
Y121062D01*
X71849Y120078D01*
X68898D01*
X77753Y124014D02*
X75785D01*
X74801Y123030D01*
Y119094D01*
X75785Y118110D01*
X77753D01*
X78737Y119094D01*
Y123030D01*
X77753Y124014D01*
X80705Y118110D02*
Y124014D01*
X83657D01*
X84641Y123030D01*
Y121062D01*
X83657Y120078D01*
X80705D01*
X82673D02*
X84641Y118110D01*
X86608Y124014D02*
X90544D01*
X88576D01*
Y118110D01*
X98416D02*
Y122046D01*
X100383Y124014D01*
X102351Y122046D01*
Y118110D01*
Y121062D01*
X98416D01*
X104319Y124014D02*
Y118110D01*
X107271D01*
X108255Y119094D01*
Y123030D01*
X107271Y124014D01*
X104319D01*
X110223D02*
Y118110D01*
X113175D01*
X114159Y119094D01*
Y123030D01*
X113175Y124014D01*
X110223D01*
X116126Y118110D02*
Y124014D01*
X119078D01*
X120062Y123030D01*
Y121062D01*
X119078Y120078D01*
X116126D01*
X118094D02*
X120062Y118110D01*
X158466Y41732D02*
X157482Y42716D01*
Y44684D01*
X158466Y45668D01*
X162402D01*
X163386Y44684D01*
Y42716D01*
X162402Y41732D01*
X158466D01*
X157482Y47636D02*
X163386Y51572D01*
X157482D02*
X163386Y47636D01*
X154331Y42520D02*
Y44488D01*
Y43504D01*
X148427D01*
X149411Y42520D01*
X148427Y47439D02*
X154331Y51375D01*
X148427D02*
X154331Y47439D01*
X157482Y83465D02*
X163386Y87400D01*
X157482D02*
X163386Y83465D01*
X158466Y89368D02*
X157482Y90352D01*
Y92320D01*
X158466Y93304D01*
X162402D01*
X163386Y92320D01*
Y90352D01*
X162402Y89368D01*
X158466D01*
X148821Y83465D02*
X154724Y87400D01*
X148821D02*
X154724Y83465D01*
Y89368D02*
Y91336D01*
Y90352D01*
X148821D01*
X149805Y89368D01*
X138583Y46063D02*
X132679D01*
Y49015D01*
X133663Y49999D01*
X135631D01*
X136615Y49015D01*
Y46063D01*
X132679Y54918D02*
Y52951D01*
X133663Y51967D01*
X137599D01*
X138583Y52951D01*
Y54918D01*
X137599Y55902D01*
X133663D01*
X132679Y54918D01*
Y57870D02*
Y61806D01*
Y59838D01*
X138583D01*
Y69677D02*
X134647D01*
X132679Y71645D01*
X134647Y73613D01*
X138583D01*
X135631D01*
Y69677D01*
X132679Y75581D02*
X138583D01*
Y78533D01*
X137599Y79517D01*
X133663D01*
X132679Y78533D01*
Y75581D01*
Y81485D02*
X138583D01*
Y84436D01*
X137599Y85420D01*
X133663D01*
X132679Y84436D01*
Y81485D01*
X138583Y87388D02*
X132679D01*
Y90340D01*
X133663Y91324D01*
X135631D01*
X136615Y90340D01*
Y87388D01*
Y89356D02*
X138583Y91324D01*
X148819Y54724D02*
X142915D01*
Y57676D01*
X143899Y58660D01*
X145867D01*
X146851Y57676D01*
Y54724D01*
Y56692D02*
X148819Y58660D01*
X143899Y60628D02*
X142915Y61612D01*
Y63580D01*
X143899Y64564D01*
X144883D01*
X145867Y63580D01*
Y62596D01*
Y63580D01*
X146851Y64564D01*
X147835D01*
X148819Y63580D01*
Y61612D01*
X147835Y60628D01*
X169685Y54331D02*
X163781D01*
Y57283D01*
X164765Y58266D01*
X166733D01*
X167717Y57283D01*
Y54331D01*
Y56299D02*
X169685Y58266D01*
X163781Y60234D02*
Y64170D01*
X164765D01*
X168701Y60234D01*
X169685D01*
X148819Y69685D02*
X142915D01*
Y72637D01*
X143899Y73621D01*
X145867D01*
X146851Y72637D01*
Y69685D01*
Y71653D02*
X148819Y73621D01*
Y79524D02*
Y75589D01*
X144883Y79524D01*
X143899D01*
X142915Y78540D01*
Y76573D01*
X143899Y75589D01*
X169685Y69291D02*
X163781D01*
Y72243D01*
X164765Y73227D01*
X166733D01*
X167717Y72243D01*
Y69291D01*
Y71259D02*
X169685Y73227D01*
X163781Y79131D02*
X164765Y77163D01*
X166733Y75195D01*
X168701D01*
X169685Y76179D01*
Y78147D01*
X168701Y79131D01*
X167717D01*
X166733Y78147D01*
Y75195D01*
X197244Y39370D02*
Y45274D01*
X200196D01*
X201180Y44290D01*
Y42322D01*
X200196Y41338D01*
X197244D01*
X199212D02*
X201180Y39370D01*
X203148D02*
X205116D01*
X204132D01*
Y45274D01*
X203148Y44290D01*
X208067Y39370D02*
X210035D01*
X209051D01*
Y45274D01*
X208067Y44290D01*
X175196Y37597D02*
X174212Y38581D01*
X172244D01*
X171260Y37597D01*
Y33661D01*
X172244Y32677D01*
X174212D01*
X175196Y33661D01*
X181099Y38581D02*
X177163D01*
Y35629D01*
X179131Y36613D01*
X180115D01*
X181099Y35629D01*
Y33661D01*
X180115Y32677D01*
X178147D01*
X177163Y33661D01*
X77165Y99508D02*
Y105412D01*
X80117D01*
X81101Y104428D01*
Y102460D01*
X80117Y101476D01*
X77165D01*
X79133D02*
X81101Y99508D01*
X87005Y105412D02*
X83069D01*
Y102460D01*
X85037Y103444D01*
X86021D01*
X87005Y102460D01*
Y100492D01*
X86021Y99508D01*
X84053D01*
X83069Y100492D01*
X79134Y108366D02*
Y114270D01*
X82086D01*
X83070Y113286D01*
Y111318D01*
X82086Y110334D01*
X79134D01*
X81102D02*
X83070Y108366D01*
X85037D02*
X87005D01*
X86021D01*
Y114270D01*
X85037Y113286D01*
X63880Y85727D02*
X62896Y84743D01*
Y82775D01*
X63880Y81791D01*
X67815D01*
X68799Y82775D01*
Y84743D01*
X67815Y85727D01*
X63880Y87695D02*
X62896Y88679D01*
Y90647D01*
X63880Y91631D01*
X64864D01*
X65847Y90647D01*
Y89663D01*
Y90647D01*
X66831Y91631D01*
X67815D01*
X68799Y90647D01*
Y88679D01*
X67815Y87695D01*
X49314Y23912D02*
X48330Y24896D01*
X46362D01*
X45378Y23912D01*
Y19976D01*
X46362Y18992D01*
X48330D01*
X49314Y19976D01*
X51282Y18992D02*
X53249D01*
X52266D01*
Y24896D01*
X51282Y23912D01*
X72735Y53739D02*
X71751Y54722D01*
X69783D01*
X68799Y53739D01*
Y49803D01*
X69783Y48819D01*
X71751D01*
X72735Y49803D01*
X78638Y48819D02*
X74703D01*
X78638Y52755D01*
Y53739D01*
X77655Y54722D01*
X75687D01*
X74703Y53739D01*
X173214Y101012D02*
X172230Y101996D01*
X170262D01*
X169278Y101012D01*
Y97076D01*
X170262Y96092D01*
X172230D01*
X173214Y97076D01*
X178133Y96092D02*
Y101996D01*
X175181Y99044D01*
X179117D01*
X14314Y48912D02*
X13330Y49896D01*
X11362D01*
X10378Y48912D01*
Y44976D01*
X11362Y43992D01*
X13330D01*
X14314Y44976D01*
X20217Y49896D02*
X18249Y48912D01*
X16282Y46944D01*
Y44976D01*
X17266Y43992D01*
X19233D01*
X20217Y44976D01*
Y45960D01*
X19233Y46944D01*
X16282D01*
X184078Y96092D02*
Y101996D01*
X187030D01*
X188014Y101012D01*
Y99044D01*
X187030Y98060D01*
X184078D01*
X186046D02*
X188014Y96092D01*
X189981D02*
X191949D01*
X190965D01*
Y101996D01*
X189981Y101012D01*
X194901D02*
X195885Y101996D01*
X197853D01*
X198837Y101012D01*
Y97076D01*
X197853Y96092D01*
X195885D01*
X194901Y97076D01*
Y101012D01*
X95866Y40453D02*
X89963D01*
Y43405D01*
X90947Y44388D01*
X92914D01*
X93898Y43405D01*
Y40453D01*
Y42421D02*
X95866Y44388D01*
Y46356D02*
Y48324D01*
Y47340D01*
X89963D01*
X90947Y46356D01*
X95866Y55212D02*
Y51276D01*
X91930Y55212D01*
X90947D01*
X89963Y54228D01*
Y52260D01*
X90947Y51276D01*
X8378Y20992D02*
Y26896D01*
X11330D01*
X12314Y25912D01*
Y23944D01*
X11330Y22960D01*
X8378D01*
X10346D02*
X12314Y20992D01*
X14281D02*
X16249D01*
X15266D01*
Y26896D01*
X14281Y25912D01*
X19201D02*
X20185Y26896D01*
X22153D01*
X23137Y25912D01*
Y24928D01*
X22153Y23944D01*
X21169D01*
X22153D01*
X23137Y22960D01*
Y21976D01*
X22153Y20992D01*
X20185D01*
X19201Y21976D01*
X115750Y74410D02*
X120670D01*
X121653Y75393D01*
Y77361D01*
X120670Y78345D01*
X115750D01*
X121653Y84249D02*
Y80313D01*
X117718Y84249D01*
X116734D01*
X115750Y83265D01*
Y81297D01*
X116734Y80313D01*
X194096Y62205D02*
X199016D01*
X200000Y63189D01*
Y65157D01*
X199016Y66141D01*
X194096D01*
X195080Y68108D02*
X194096Y69092D01*
Y71060D01*
X195080Y72044D01*
X196064D01*
X197048Y71060D01*
Y70076D01*
Y71060D01*
X198032Y72044D01*
X199016D01*
X200000Y71060D01*
Y69092D01*
X199016Y68108D01*
X31378Y50396D02*
Y45476D01*
X32362Y44492D01*
X34330D01*
X35314Y45476D01*
Y50396D01*
X40233Y44492D02*
Y50396D01*
X37282Y47444D01*
X41217D01*
D33*
X232403Y32739D02*
X231403Y31739D01*
Y29740D01*
X232403Y28740D01*
X236402D01*
X237402Y29740D01*
Y31739D01*
X236402Y32739D01*
Y34738D02*
X237402Y35738D01*
Y37737D01*
X236402Y38737D01*
X232403D01*
X231403Y37737D01*
Y35738D01*
X232403Y34738D01*
X233403D01*
X234402Y35738D01*
Y38737D01*
X232403Y94550D02*
X231403Y93550D01*
Y91551D01*
X232403Y90551D01*
X236402D01*
X237402Y91551D01*
Y93550D01*
X236402Y94550D01*
X232403Y96549D02*
X231403Y97549D01*
Y99548D01*
X232403Y100548D01*
X233403D01*
X234402Y99548D01*
X235402Y100548D01*
X236402D01*
X237402Y99548D01*
Y97549D01*
X236402Y96549D01*
X235402D01*
X234402Y97549D01*
X233403Y96549D01*
X232403D01*
X234402Y97549D02*
Y99548D01*
M02*
